<svg version="1.2" xmlns="http://www.w3.org/2000/svg" viewBox="0 0 99 96" width="99" height="96">
	<title>logo1-svg</title>
	<style>
		.s0 { fill: #000000 } 
		.s1 { fill: #000000;stroke: #000000;stroke-width: .8 } 
		.s2 { fill: #000000;stroke: #000000;stroke-width: 1.1 } 
		.s3 { fill: #000000;stroke: #000000 } 
	</style>
	<g id="Layer">
		<path id="Layer" class="s0" d="m53.3 45.1c0 3.2-2.6 5.7-5.7 5.7-3.1 0-5.6-2.5-5.6-5.7 0-3.1 2.5-5.6 5.6-5.6 3.1 0 5.7 2.5 5.7 5.6zm-9.6 10.2c0.3 0.3 0.7 0.6 1.1 0.7 1.1 0.2 2.5-0.6 5.6-0.8 2.7-0.2 5.3 0.6 7 2.2q0.4 0.4 0.8 0.8v0.1l10.1 11.3c0 0-2.3 2.7-3.5 2.5-1.3-0.2-8.4-9.2-8.4-9.2l3.5 13.7c0 0-1.6 0.3-3.5 0.7l2.7 13.6c0.3 1.2-0.5 2.3-1.6 2.5-1.2 0.2-2.3-0.5-2.5-1.6l-2.5-12.3q0-0.1-0.1-0.2 0-0.1 0-0.1c-0.3-0.8-1-1.3-1.9-1.3-1.1 0-2 1-2 2.1v13.7c0 1.2-1 2.1-2.1 2.1-1.2 0-2.1-0.9-2.1-2.1v-31.1l-12.3-13.7 3.3-2.9c0 0 8.4 9.3 8.4 9.3z"/>
		<path id="Layer" fill-rule="evenodd" class="s0" d="m22.5 10.2c0 3.8-3.1 6.8-6.8 6.8-3.8 0-6.9-3-6.9-6.8 0-3.8 3.1-6.9 6.9-6.9 3.7 0 6.8 3.1 6.8 6.9zm5.2 18.8l7.1 12.5-3.7 2.5-8.5-14.9c-0.4-0.6-0.7-1.2-1.4-1.1-0.8 0-1.3 0.6-1.3 1.3l0.4 13.9c0 0.7 0.8 1.5 1.3 2.1 1.9 2.4 4.2 4.4 6.8 7.6 3.7 4.4 6.1 12.9 6.1 12.9 0 0-4.4-0.2-9.4-0.1v26.9c0 1.6-1.3 2.9-2.9 2.9-1.6 0-3-1.3-3-2.9v-26.8q-0.6 0.1-1.2 0.1v21.6c0 1.6-1.4 2.9-3 2.9-1.6 0-2.9-1.3-2.9-2.9v-20.9c-6.1 1.1-11.6 3-11.6 3 0 0 1.1-9.1 2.7-13.3 1.1-3.1 3-6.3 4.8-8.5-3-2.7-4.2-5.1-4.5-9v-7.5c0-6.7 5.4-12.2 12.1-12.2 6 0 9.8 4.5 12.1 9.9zm-19.4 0.3v14c0.1 0.6 0.6 1.2 1.3 1.2 0.7 0 1.3-0.6 1.3-1.3v-13.9c0-0.8-0.6-1.3-1.3-1.3-0.7 0-1.3 0.5-1.3 1.3z"/>
		<path id="Layer" fill-rule="evenodd" class="s0" d="m87.4 5.6c0 0.7-0.3 1.4-0.8 2 0 0 0 0.1-0.1 0.1-1.6 1-4 1.7-6.6 1.7-2.2 0-4.2-0.5-5.7-1.3q-0.1 0-0.1 0c-0.9-0.7-1.4-1.5-1.4-2.5 0-2.3 3.3-4.1 7.4-4.1 4 0 7.3 1.8 7.3 4.1zm-10.6-1.9c-0.4 0.4 0.4 3.5 0.8 3.8 0.4 0.3 1.6 0.4 2 0.1 0.3-0.3 1.3-3.5 0.9-3.9-0.2-0.2-1-0.3-1.9-0.3-0.8 0-1.6 0.1-1.8 0.3zm3.3 8.4c2.4 0 4.6-1.1 5.9-2.7q0.2 0.7 0.2 1.4c0 3.4-2.8 6.1-6.1 6.1-3.4 0-6.1-2.7-6.1-6.1 0-0.5 0-1 0.1-1.4 1.3 1.6 3.5 2.7 6 2.7zm4.9 7.5c-1.7 3.7-5.4 11.6-10.9 20.2v-6.9c0-0.9-0.7-1.7-1.6-1.7-0.9 0-1.6 0.8-1.6 1.7v19.4c0 0 0 0 0 0.1 0 1.9-1.1 3.5-2.5 3.5-1.4 0-2.5-1.6-2.5-3.5 0-0.1 0-0.1 0-0.1v-28.1c0-2.5 1.5-4.6 3.3-4.6 0 0 15.8 0 15.8 0zm10 0c1.8 0 3.3 2.1 3.3 4.6v28.1c0 0 0 0 0 0.1 0 1.9-1.1 3.5-2.5 3.5-1.4 0-2.5-1.6-2.5-3.5 0-0.1 0-0.1 0-0.1v-19.4c0-0.9-0.7-1.7-1.6-1.7-0.9 0-1.6 0.8-1.6 1.7v59.1c0 1.6-1.3 3-2.9 3-1.7 0-3-1.4-3-3v-34.4c0-1.1-0.9-2.1-2.1-2.1-1.2 0-2.1 1-2.1 2.1v34.4c0 1.6-1.3 3-3 3-1.6 0-2.9-1.4-2.9-3v-37.7c6.8-11.6 14.9-29.7 16.7-34.7 0 0 4.2 0 4.2 0z"/>
		<path id="Layer" fill-rule="evenodd" class="s0" d="m36.1 43.9v3.3c0 1.2-0.9 2.2-2.1 2.2-1.2 0-2.2-1-2.2-2.2v-3.3c0-1.2 1-2.1 2.2-2.1 1.2 0 2.1 0.9 2.1 2.1zm-2.2 4.3c-0.4 0-0.6-0.2-0.9-0.3 0.2 0.3 0.6 0.5 1 0.5 0.5 0 1-0.4 1.1-0.9-0.2 0.4-0.7 0.7-1.2 0.7z"/>
		<path id="Layer" class="s1" d="m87.8 9c0 2-0.8 4-2.2 5.4-1.5 1.5-3.5 2.3-5.5 2.3-2.1 0-4-0.8-5.5-2.3-1.4-1.4-2.2-3.4-2.2-5.4 0-2.1 0.8-4 2.2-5.5 1.5-1.4 3.4-2.2 5.5-2.2 2 0 4 0.8 5.5 2.2 1.4 1.5 2.2 3.4 2.2 5.5z"/>
		<path id="Layer" class="s2" d="m74 19.8h16.3q0 0 0.1 0 0 0.1 0.1 0.1 0 0 0 0.1 0.1 0 0.1 0.1v34q0 0-0.1 0.1 0 0 0 0.1-0.1 0-0.1 0-0.1 0-0.1 0h-16.3q0 0-0.1 0 0 0-0.1 0 0-0.1 0-0.1-0.1-0.1-0.1-0.1v-34q0-0.1 0.1-0.1 0-0.1 0-0.1 0.1 0 0.1-0.1 0.1 0 0.1 0z"/>
		<path id="Layer" class="s3" d="m54.6 46.4c0 1.8-0.7 3.4-1.9 4.6-1.2 1.2-2.8 1.9-4.5 1.9-1.7 0-3.4-0.7-4.6-1.9-1.2-1.2-1.9-2.8-1.9-4.6 0-1.7 0.7-3.3 1.9-4.5 1.2-1.2 2.9-1.9 4.6-1.9 1.7 0 3.3 0.7 4.5 1.9 1.2 1.2 1.9 2.8 1.9 4.5z"/>
	</g>
</svg>